<?xml version="1.0" standalone="no"?>
<!DOCTYPE svg PUBLIC "-//W3C//DTD SVG 20010904//EN"
 "http://www.w3.org/TR/2001/REC-SVG-20010904/DTD/svg10.dtd">
<svg version="1.0" xmlns="http://www.w3.org/2000/svg"
 width="132.000000pt" height="132.000000pt" viewBox="0 0 132.000000 132.000000"
 preserveAspectRatio="xMidYMid meet">
<metadata>
Created by potrace 1.12, written by Peter Selinger 2001-2015
</metadata>
<g transform="translate(0.000000,132.000000) scale(0.100000,-0.100000)"
fill="#000000" stroke="none">
<path d="M370 997 c-151 -84 -283 -157 -293 -163 -15 -9 31 -37 275 -170 160
-87 297 -160 303 -162 6 -1 118 56 249 128 132 71 243 130 248 130 4 0 8 -83
8 -185 l0 -185 50 0 50 0 0 218 0 219 -292 159 c-161 87 -299 160 -308 161 -8
1 -139 -67 -290 -150z"/>
<path d="M280 493 l0 -120 186 -102 c103 -55 190 -101 194 -101 4 0 91 46 194
101 l186 102 0 120 0 119 -22 -14 c-97 -62 -348 -208 -358 -208 -10 0 -261
146 -357 208 l-23 14 0 -119z"/>
</g>
</svg>
