<?xml version="1.0" standalone="no"?>
<!DOCTYPE svg PUBLIC "-//W3C//DTD SVG 20010904//EN"
 "http://www.w3.org/TR/2001/REC-SVG-20010904/DTD/svg10.dtd">
<svg version="1.0" xmlns="http://www.w3.org/2000/svg"
 width="512.000000pt" height="512.000000pt" viewBox="0 0 512.000000 512.000000"
 preserveAspectRatio="xMidYMid meet">
<metadata>
Created by potrace 1.12, written by Peter Selinger 2001-2015
</metadata>
<g transform="translate(0.000000,512.000000) scale(0.100000,-0.100000)"
fill="#000000" stroke="none">
<path d="M983 4186 c-69 -78 -113 -156 -140 -248 l-23 -80 0 -1182 c0 -1282
-2 -1230 54 -1351 36 -77 74 -127 171 -226 135 -137 191 -157 515 -184 639
-53 1931 -35 2259 30 106 21 165 55 259 148 130 128 199 246 222 377 8 46 10
414 8 1245 -3 1176 -3 1180 -24 1235 -12 31 -32 76 -44 100 -23 45 -117 170
-127 170 -4 0 2 -9 12 -20 18 -19 17 -20 -6 -21 -44 -3 -93 3 -119 14 -53 23
-270 28 -1355 34 -789 3 -1157 1 -1245 -7 -69 -6 -152 -12 -185 -15 -33 -2
-85 -10 -116 -18 -30 -8 -68 -13 -83 -10 l-27 6 27 28 c15 16 25 29 22 29 -4
0 -28 -24 -55 -54z m1279 -387 c165 -83 110 -353 -77 -375 -135 -16 -227 64
-227 197 0 158 158 251 304 178z m-151 -408 c30 -21 131 -87 224 -147 l170
-109 200 -5 199 -5 43 -70 c24 -38 43 -73 43 -77 0 -11 -441 -10 -517 1 -53 8
-86 23 -214 101 -84 50 -156 87 -160 83 -10 -10 -221 -553 -223 -573 -1 -13
34 -16 240 -20 l241 -5 56 -37 c30 -20 67 -52 81 -71 28 -36 290 -762 283
-781 -5 -11 -185 -82 -192 -75 -2 2 -59 164 -128 359 -69 195 -130 367 -136
382 l-10 27 -365 3 -366 3 -27 28 c-42 41 -37 95 21 236 26 63 72 180 103 260
84 219 192 463 216 490 29 31 52 40 113 40 43 1 59 -5 105 -38z m-599 -267
c14 -113 4 -338 -17 -370 -29 -45 -50 -7 -69 124 -21 156 -31 99 -34 -198 -1
-157 0 -295 3 -306 2 -12 13 -25 22 -29 10 -4 206 -6 436 -5 l417 1 0 -40 0
-41 -46 0 -47 0 47 -50 c25 -27 46 -50 46 -52 0 -38 31 -560 36 -600 6 -57 5
-58 -19 -58 -22 0 -25 5 -31 58 -3 31 -10 140 -16 242 -22 391 -16 369 -105
430 l-44 30 -229 0 -229 0 -39 -29 c-80 -58 -75 -37 -100 -399 -12 -180 -23
-328 -23 -329 -1 -2 -13 -3 -27 -3 -24 0 -25 2 -20 43 7 54 23 286 32 452 4
72 10 140 15 152 5 13 27 43 49 67 l40 43 -66 6 c-77 6 -114 28 -126 76 -5 18
-8 167 -6 332 l3 301 28 22 c24 19 30 34 37 92 10 81 23 120 42 127 22 8 29
-8 40 -89z m2268 -324 l0 -130 -210 0 -210 0 0 -506 c0 -506 0 -506 22 -546
35 -62 63 -72 218 -75 126 -3 135 -4 142 -24 5 -11 6 -25 2 -30 -6 -11 -1304
-12 -1320 -1 -7 4 -8 15 -3 30 10 25 -17 24 409 26 224 1 259 3 291 19 72 36
70 21 67 592 l-3 510 -452 3 -453 2 0 120 c0 103 2 120 18 129 11 7 271 10
750 11 l732 0 0 -130z"/>
<path d="M2342 2808 l3 -83 698 -3 697 -2 0 85 0 85 -700 0 -701 0 3 -82z"/>
</g>
</svg>
