<?xml version="1.0" standalone="no"?>
<!DOCTYPE svg PUBLIC "-//W3C//DTD SVG 20010904//EN"
 "http://www.w3.org/TR/2001/REC-SVG-20010904/DTD/svg10.dtd">
<svg version="1.0" xmlns="http://www.w3.org/2000/svg"
 width="1249.000000pt" height="1024.000000pt" viewBox="0 0 1249.000000 1024.000000"
 preserveAspectRatio="xMidYMid meet">
<metadata>
Created by potrace 1.12, written by Peter Selinger 2001-2015
</metadata>
<g transform="translate(0.000000,1024.000000) scale(0.100000,-0.100000)"
fill="#000000" stroke="none">
<path d="M11627 10133 c-16 -290 -153 -594 -366 -816 -192 -199 -414 -324
-696 -390 -89 -20 -112 -21 -1445 -27 -1199 -5 -1366 -8 -1452 -23 -130 -22
-273 -59 -399 -103 -680 -236 -1216 -824 -1395 -1528 -35 -136 -64 -342 -64
-448 l0 -88 424 0 423 0 7 88 c28 341 153 612 395 853 164 164 335 269 539
333 197 62 123 59 1602 66 745 4 1371 10 1390 14 19 4 82 17 140 28 591 115
1128 493 1444 1018 187 310 290 646 312 1018 l7 112 -430 0 -430 0 -6 -107z"/>
<path d="M3045 6463 c-1312 -86 -2452 -963 -2873 -2208 -450 -1333 6 -2804
1133 -3650 350 -263 719 -439 1167 -557 l163 -43 590 -3 590 -3 124 26 c561
118 1104 400 1538 800 l91 85 665 0 665 0 94 -86 c419 -387 886 -637 1457
-782 l146 -37 610 0 610 0 120 29 c482 114 933 333 1305 631 577 464 980 1105
1144 1823 101 438 105 962 10 1402 -105 490 -333 970 -649 1365 -106 134 -385
411 -515 511 -532 412 -1123 643 -1779 694 -122 9 -6265 12 -6406 3z m6462
-868 c420 -55 798 -208 1140 -461 432 -320 753 -800 888 -1328 57 -222 70
-331 70 -596 -1 -177 -5 -263 -19 -350 -124 -793 -609 -1455 -1321 -1805 -252
-124 -535 -206 -813 -236 -162 -17 -483 -7 -637 20 -413 73 -752 222 -1087
478 -115 87 -317 286 -393 386 l-50 66 -1051 0 -1050 1 -71 -87 c-336 -415
-847 -722 -1378 -828 -192 -38 -325 -48 -548 -42 -371 10 -679 86 -1001 248
-720 364 -1207 1048 -1311 1842 -32 248 -16 591 40 837 205 907 925 1622 1830
1819 236 51 78 49 3472 50 2800 1 3186 -1 3290 -14z"/>
<path d="M2914 4626 c-28 -13 -63 -39 -77 -58 -57 -74 -57 -75 -57 -493 l0
-385 -387 0 c-386 0 -388 0 -438 -24 -59 -27 -96 -67 -119 -128 -15 -37 -16
-84 -14 -344 l3 -301 30 -49 c19 -30 49 -60 79 -79 l49 -30 398 -3 398 -3 3
-398 3 -398 30 -49 c19 -30 49 -60 79 -79 l49 -30 301 -3 c341 -3 354 -1 424
70 70 71 72 82 72 510 l0 378 378 0 c428 0 439 2 510 72 71 70 73 83 70 424
l-3 301 -30 49 c-19 30 -49 60 -79 79 l-49 30 -398 3 -398 3 -3 398 -3 398
-30 49 c-19 30 -49 60 -79 79 l-49 30 -306 3 c-305 2 -306 2 -357 -22z"/>
<path d="M9080 4636 c-132 -37 -247 -135 -307 -261 -32 -68 -37 -88 -41 -174
-3 -73 0 -112 13 -157 63 -220 282 -372 503 -350 120 12 249 77 320 163 167
198 156 471 -25 652 -71 70 -127 103 -216 127 -63 17 -186 17 -247 0z"/>
<path d="M8123 3675 c-135 -37 -248 -131 -308 -257 -134 -281 30 -614 333
-677 371 -77 682 295 542 649 -87 221 -338 346 -567 285z"/>
<path d="M10056 3679 c-171 -40 -321 -194 -357 -367 -16 -77 -6 -204 20 -271
92 -231 340 -357 573 -292 362 100 477 554 205 807 -70 66 -124 96 -212 119
-64 16 -167 18 -229 4z"/>
<path d="M9095 2716 c-218 -54 -365 -241 -365 -466 0 -267 211 -480 477 -480
127 0 245 50 339 144 132 132 174 316 113 493 -79 230 -328 367 -564 309z"/>
</g>
</svg>
